<svg xmlns="http://www.w3.org/2000/svg" xmlns:xlink="http://www.w3.org/1999/xlink" width="500" zoomAndPan="magnify" viewBox="0 0 375 374.999991" height="500" preserveAspectRatio="xMidYMid meet" version="1.0"><defs><g/></defs><rect x="-37.5" width="450" fill="#ffffff" y="-37.499999" height="449.999989" fill-opacity="1"/><rect x="-37.5" width="450" fill="#ffffff" y="-37.499999" height="449.999989" fill-opacity="1"/><rect x="-37.5" width="450" fill="#000000" y="-37.499999" height="449.999989" fill-opacity="1"/><g fill="#ffffff" fill-opacity="1"><g transform="translate(71.351565, 225.749985)"><g><path d="M 52.59375 -1.09375 L 52.5 0 L 11.59375 0 L 11.59375 -70 L 52.5 -70 L 52.5 -68.90625 L 12.796875 -68.90625 L 12.796875 -36.09375 L 46.5 -36.09375 L 46.5 -35 L 12.796875 -35 L 12.796875 -1.09375 Z M 52.59375 -1.09375 "/></g></g></g><g fill="#ffffff" fill-opacity="1"><g transform="translate(129.59922, 225.749985)"><g/></g></g><g fill="#ffffff" fill-opacity="1"><g transform="translate(158.098073, 225.749985)"><g><path d="M 52.09375 -33 L 29.5 -33 L 29.5 -9.40625 L 28.5 -9.40625 L 28.5 -33 L 6 -33 L 6 -34 L 28.5 -34 L 28.5 -57.5 L 29.5 -57.5 L 29.5 -34 L 52.09375 -34 Z M 52.09375 -33 "/></g></g></g><g fill="#ffffff" fill-opacity="1"><g transform="translate(216.095731, 225.749985)"><g/></g></g><g fill="#ffffff" fill-opacity="1"><g transform="translate(244.594584, 225.749985)"><g><path d="M 12.796875 -34.796875 L 26.90625 -34.796875 C 30.332031 -34.796875 33.421875 -35.203125 36.171875 -36.015625 C 38.921875 -36.835938 41.269531 -38.003906 43.21875 -39.515625 C 45.175781 -41.035156 46.675781 -42.882812 47.71875 -45.0625 C 48.769531 -47.25 49.296875 -49.726562 49.296875 -52.5 C 49.296875 -58.195312 47.445312 -62.367188 43.75 -65.015625 C 40.050781 -67.671875 34.734375 -69 27.796875 -69 L 12.796875 -69 Z M 56.796875 0 L 56 0 C 55.726562 0 55.507812 -0.0234375 55.34375 -0.078125 C 55.175781 -0.128906 54.960938 -0.300781 54.703125 -0.59375 L 28.5 -32 C 28.226562 -32.332031 27.953125 -32.613281 27.671875 -32.84375 C 27.390625 -33.082031 27.070312 -33.273438 26.71875 -33.421875 C 26.375 -33.578125 25.957031 -33.675781 25.46875 -33.71875 C 24.988281 -33.769531 24.398438 -33.796875 23.703125 -33.796875 L 12.796875 -33.796875 L 12.796875 0 L 11.59375 0 L 11.59375 -70 L 27.796875 -70 C 35.097656 -70 40.707031 -68.582031 44.625 -65.75 C 48.539062 -62.914062 50.5 -58.5 50.5 -52.5 C 50.5 -49.664062 49.945312 -47.109375 48.84375 -44.828125 C 47.75 -42.546875 46.203125 -40.601562 44.203125 -39 C 42.203125 -37.394531 39.804688 -36.144531 37.015625 -35.25 C 34.234375 -34.351562 31.160156 -33.867188 27.796875 -33.796875 C 28.128906 -33.660156 28.425781 -33.484375 28.6875 -33.265625 C 28.957031 -33.054688 29.226562 -32.800781 29.5 -32.5 Z M 56.796875 0 "/></g></g></g></svg>